<svg width="1375" height="1375" viewBox="0 0 1375 1375" fill="none" xmlns="http://www.w3.org/2000/svg">
<rect x="0.899414" y="687.5" width="971" height="971" rx="57" transform="rotate(-45 0.899414 687.5)" fill="#9F0303"/>
<path d="M537.753 1027C515.669 1027 496.74 1019.11 480.966 1003.34C465.192 987.569 457.305 959.967 457.305 920.537C457.305 885.837 459.671 844.829 464.403 797.512C470.713 750.195 479.389 702.089 490.43 653.195C501.472 602.724 514.092 558.561 528.288 520.707C501.472 560.138 471.502 601.146 438.376 643.732C405.251 684.74 377.646 719.439 355.563 747.829C350.831 754.138 346.887 757.293 343.732 757.293C340.577 757.293 339 753.35 339 745.463C339 732.846 342.944 721.016 350.831 709.976C383.956 664.236 421.025 612.187 462.037 553.829C504.627 495.472 540.907 442.634 570.878 395.317C588.229 392.163 608.736 387.431 632.397 381.122C657.635 374.813 675.775 366.138 686.817 355.098C694.704 350.366 699.436 348 701.014 348C705.746 348 708.112 351.154 708.112 357.463C708.112 362.195 705.746 367.715 701.014 374.024C686.817 394.528 671.043 426.073 653.692 468.659C637.917 511.244 621.355 558.561 604.003 610.61C588.229 662.659 574.821 713.919 563.78 764.39C554.315 813.285 549.583 855.081 549.583 889.78C549.583 915.016 553.527 933.154 561.414 944.195C569.301 953.659 579.554 958.39 592.173 958.39C609.524 958.39 630.03 949.715 653.692 932.366C678.93 915.016 700.225 896.878 717.576 877.951C739.66 854.293 764.11 822.748 790.925 783.317C819.319 743.886 845.346 702.089 869.007 657.927C894.245 613.764 913.174 573.545 925.793 537.268C935.258 512.033 941.567 490.74 944.722 473.39C947.877 454.463 949.454 439.48 949.454 428.439C949.454 409.512 947.088 396.106 942.356 388.22C937.624 380.333 933.68 375.602 930.525 374.024C921.061 370.87 916.329 366.927 916.329 362.195C916.329 359.041 919.484 356.675 925.793 355.098C932.103 351.943 938.412 351.943 944.722 355.098C965.228 361.406 985.734 370.87 1006.24 383.488C1026.75 394.528 1037 416.61 1037 449.732C1037 457.618 1036.21 467.081 1034.63 478.122C1033.06 487.585 1029.9 498.626 1025.17 511.244C1015.71 536.48 995.988 571.967 966.017 617.707C937.624 663.447 904.498 711.553 866.641 762.024C828.783 812.496 790.925 858.236 753.068 899.244C715.21 940.252 682.085 969.431 653.692 986.78C634.763 997.821 615.045 1007.28 594.539 1015.17C574.033 1023.06 555.104 1027 537.753 1027Z" fill="white"/>
<path d="M102 699.624C92.6666 694.236 92.6667 680.764 102 675.376L149.25 648.096C158.583 642.707 170.25 649.443 170.25 660.22L170.25 714.78C170.25 725.557 158.583 732.293 149.25 726.904L102 699.624Z" fill="white"/>
<line x1="1232.28" y1="629.818" x2="1173.82" y2="759.724" stroke="white" stroke-width="33" stroke-linecap="round"/>
</svg>
